<svg xmlns="http://www.w3.org/2000/svg" fill="none" viewBox="0 0 776 776"><defs/><g filter="url(#a)"><rect width="768" height="768" x="4" fill="#F6E05E" rx="16"/><path fill="#000" d="M218.81 485.81c-42.75 0-64.124-22.312-64.124-66.937v-135.56h28.124v135.56c0 13.313 2.907 23.344 8.719 30.094 5.907 6.75 15.188 10.125 27.844 10.125 24.375 0 36.563-13.406 36.563-40.219v-135.56h28.124v135.56c0 22.313-5.531 39.047-16.593 50.203-11.063 11.156-27.281 16.734-48.657 16.734zm130.78-2.812v-26.719h22.218c20.532 0 35.954-5.859 46.266-17.578 10.406-11.719 15.61-29.297 15.61-52.734 0-25.407-5.204-44.391-15.61-56.953-10.312-12.657-25.734-18.985-46.266-18.985h-21.656l-3.375-26.719h25.031c60.938 0 91.407 34.219 91.407 102.66 0 64.687-30.469 97.031-91.407 97.031H349.59zm-26.156 0v-199.69h28.124v199.69h-28.124zm233.44 2.812c-49.125 0-73.687-33.75-73.687-101.25 0-69.374 24.562-104.06 73.687-104.06s73.687 34.688 73.687 104.06c0 67.5-24.562 101.25-73.687 101.25zm0-25.874c29.437 0 44.156-25.126 44.156-75.376 0-52.124-14.719-78.187-44.156-78.187s-44.156 26.063-44.156 78.187c0 50.25 14.719 75.376 44.156 75.376zM199 524h379v8H199z"/></g><defs><filter id="a" width="776" height="776" x="0" y="0" color-interpolation-filters="sRGB" filterUnits="userSpaceOnUse"><feFlood flood-opacity="0" result="BackgroundImageFix"/><feColorMatrix in="SourceAlpha" result="hardAlpha" values="0 0 0 0 0 0 0 0 0 0 0 0 0 0 0 0 0 0 127 0"/><feOffset dy="4"/><feGaussianBlur stdDeviation="2"/><feComposite in2="hardAlpha" operator="out"/><feColorMatrix values="0 0 0 0 0 0 0 0 0 0 0 0 0 0 0 0 0 0 0.25 0"/><feBlend in2="BackgroundImageFix" result="effect1_dropShadow"/><feBlend in="SourceGraphic" in2="effect1_dropShadow" result="shape"/></filter></defs></svg>